<?xml version="1.0" standalone="no"?>
<!DOCTYPE svg PUBLIC "-//W3C//DTD SVG 20010904//EN"
 "http://www.w3.org/TR/2001/REC-SVG-20010904/DTD/svg10.dtd">
<svg version="1.0" xmlns="http://www.w3.org/2000/svg"
 width="600.000000pt" height="620.000000pt" viewBox="0 0 600.000000 620.000000"
 preserveAspectRatio="xMidYMid meet">
<metadata>
Created by potrace 1.15, written by Peter Selinger 2001-2017
</metadata>
<g transform="translate(0.000000,620.000000) scale(0.100000,-0.100000)"
fill="#000000" stroke="none">
<path d="M2745 5970 c-233 -24 -480 -83 -700 -167 -112 -42 -375 -172 -375
-184 0 -5 -5 -9 -12 -9 -18 0 -163 -95 -273 -179 -109 -82 -405 -372 -405
-395 0 -8 15 -24 33 -35 18 -11 42 -29 52 -41 23 -25 51 -26 64 -2 17 32 256
264 328 319 38 29 79 62 91 73 11 11 23 20 26 20 3 0 43 24 88 54 312 203 671
333 1058 381 193 25 491 17 685 -19 332 -60 623 -172 904 -347 51 -33 97 -59
101 -59 5 0 10 -4 12 -9 2 -5 46 -42 98 -82 97 -74 370 -339 370 -358 0 -22
43 -10 83 24 22 19 44 35 49 35 25 0 -1 46 -64 115 -88 94 -236 239 -248 243
-5 2 -24 17 -42 34 -49 47 -190 148 -205 148 -7 0 -13 4 -13 9 0 11 -157 105
-276 164 -240 120 -515 206 -809 252 -120 19 -491 28 -620 15z"/>
<path d="M1624 4989 c-18 -5 -53 -24 -80 -41 -161 -109 -188 -342 -57 -488 56
-63 101 -86 190 -100 158 -25 300 55 354 199 28 76 24 195 -11 266 -32 66
-101 130 -167 155 -58 21 -171 26 -229 9z"/>
<path d="M2875 4972 c-72 -35 -124 -85 -156 -149 -33 -67 -34 -216 -3 -284 31
-67 78 -114 146 -149 53 -26 72 -30 143 -30 113 0 167 20 236 89 68 68 91 129
91 237 0 126 -64 229 -182 290 -24 12 -64 19 -125 21 -83 4 -95 2 -150 -25z"/>
<path d="M4156 4984 c-127 -46 -206 -163 -206 -304 0 -140 79 -261 200 -305
81 -29 189 -26 262 9 141 67 213 222 174 374 -28 111 -92 184 -194 222 -63 24
-177 26 -236 4z"/>
<path d="M730 4921 c-76 -25 -142 -80 -170 -143 -61 -140 -12 -300 112 -365
46 -24 65 -28 138 -28 91 0 136 16 191 68 132 126 105 356 -51 441 -42 23 -69
30 -124 32 -39 2 -82 0 -96 -5z"/>
<path d="M5110 4890 c-19 -4 -36 -13 -38 -19 -2 -6 -7 -11 -12 -11 -9 0 -80
-69 -80 -78 0 -3 -8 -14 -17 -24 -25 -28 -32 -187 -9 -219 9 -13 16 -31 16
-41 0 -10 3 -18 8 -18 4 0 12 -10 17 -22 6 -13 22 -29 38 -36 15 -7 27 -17 27
-23 0 -5 8 -9 18 -9 9 0 30 -7 46 -15 66 -35 202 -5 267 58 69 67 84 104 84
207 0 70 -4 91 -20 114 -11 16 -24 36 -30 44 -17 26 -45 52 -55 52 -5 0 -10 5
-10 10 0 6 -6 10 -14 10 -8 0 -16 5 -18 10 -4 14 -173 22 -218 10z"/>
<path d="M546 4295 c-58 -139 -123 -394 -152 -600 -21 -150 -24 -495 -6 -645
20 -156 77 -402 128 -552 88 -260 264 -579 441 -798 134 -167 334 -354 518
-486 143 -102 374 -228 535 -292 199 -79 539 -168 559 -146 5 5 12 41 15 80
l7 71 -88 17 c-359 72 -756 260 -1053 499 -120 97 -318 302 -412 428 -237 316
-394 670 -463 1044 -75 411 -49 796 79 1190 25 76 46 144 46 150 0 9 -116 75
-133 75 -4 0 -13 -16 -21 -35z"/>
<path d="M1340 4291 c-72 -38 -71 -28 -71 -512 0 -239 0 -446 1 -461 0 -37 70
-108 105 -108 29 0 26 58 25 -478 0 -227 3 -377 10 -402 33 -121 180 -156 267
-63 l33 34 0 460 c0 401 2 459 15 459 13 0 15 -56 15 -440 0 -483 0 -483 59
-533 27 -23 42 -27 91 -27 33 0 71 5 85 12 l25 11 0 259 c0 225 -2 258 -15
258 -26 0 -103 85 -114 126 -7 25 -11 192 -11 460 l0 422 28 53 c41 79 93 108
195 110 51 1 77 5 77 13 0 7 -24 37 -54 67 -62 65 -95 141 -103 237 l-6 62
-311 0 c-285 0 -314 -2 -346 -19z"/>
<path d="M2734 4258 c1 -29 -3 -70 -8 -90 -11 -49 7 -50 71 -6 53 36 148 68
203 68 49 0 160 -34 193 -60 14 -11 37 -20 52 -20 27 0 28 1 21 46 -3 26 -6
62 -6 80 l0 34 -263 0 -264 0 1 -52z"/>
<path d="M3997 4248 c-8 -95 -40 -169 -103 -235 -30 -32 -54 -62 -54 -68 0 -6
29 -11 73 -11 102 0 169 -41 208 -128 17 -38 19 -73 19 -461 0 -268 -4 -434
-11 -459 -11 -41 -88 -126 -114 -126 -13 0 -15 -33 -15 -258 l0 -259 25 -11
c14 -7 52 -12 85 -12 49 0 64 4 91 27 59 50 59 50 59 538 0 389 2 445 15 445
13 0 15 -58 15 -459 l0 -458 23 -34 c30 -44 70 -63 134 -62 41 0 60 6 88 28
20 15 40 38 46 52 5 14 9 216 9 469 0 441 0 444 20 444 33 0 76 27 102 62 l23
33 0 450 c0 432 -1 451 -20 484 -41 69 -53 71 -401 71 l-311 0 -6 -62z"/>
<path d="M5416 4291 c-3 -5 -29 -17 -57 -27 -28 -11 -53 -24 -56 -29 -2 -6 8
-42 22 -80 34 -91 91 -316 111 -440 36 -227 29 -559 -17 -805 -184 -980 -952
-1764 -1923 -1964 l-111 -23 0 -78 c0 -42 3 -79 6 -81 18 -10 334 63 449 105
30 11 73 27 96 35 337 123 683 352 950 629 656 679 895 1654 629 2572 -49 168
-77 221 -99 186z"/>
<path d="M2895 4173 c-153 -47 -249 -214 -216 -376 21 -104 78 -181 171 -229
35 -18 65 -24 137 -26 82 -4 97 -1 152 23 62 28 126 87 154 141 24 47 40 143
32 198 -27 207 -226 332 -430 269z"/>
<path d="M2614 3480 c-11 -4 -33 -22 -47 -40 l-27 -32 0 -461 c0 -434 1 -464
19 -493 17 -28 73 -64 100 -64 7 0 11 -142 13 -442 3 -435 3 -444 25 -478 30
-49 71 -70 133 -70 61 0 100 18 132 62 l23 33 3 448 c2 264 7 447 12 447 5 0
10 -183 12 -447 l3 -448 23 -33 c32 -44 71 -62 132 -62 62 0 103 21 133 70 22
34 22 43 25 478 2 300 6 442 13 442 27 0 83 36 100 64 18 29 19 58 19 487 l0
456 -23 34 c-40 59 -38 59 -437 58 -201 0 -374 -4 -386 -9z"/>
<path d="M2901 1079 c-115 -35 -191 -140 -191 -263 0 -104 45 -185 133 -240
54 -33 155 -46 224 -27 61 17 124 69 158 131 26 48 30 65 29 135 0 114 -42
189 -133 238 -57 32 -162 44 -220 26z"/>
</g>
</svg>
