<?xml version="1.0" encoding="UTF-8"?>
<svg xmlns="http://www.w3.org/2000/svg" xmlns:xlink="http://www.w3.org/1999/xlink" width="60pt" height="62pt" viewBox="0 0 60 62" version="1.1">
<g id="surface1">
<path style=" stroke:none;fill-rule:nonzero;fill:rgb(0%,0%,0%);fill-opacity:1;" d="M 27.449219 2.300781 C 25.121094 2.539062 22.648438 3.128906 20.449219 3.96875 C 19.328125 4.390625 16.699219 5.691406 16.699219 5.808594 C 16.699219 5.859375 16.648438 5.898438 16.578125 5.898438 C 16.398438 5.898438 14.949219 6.851562 13.851562 7.691406 C 12.761719 8.511719 9.800781 11.410156 9.800781 11.640625 C 9.800781 11.71875 9.949219 11.878906 10.128906 11.988281 C 10.308594 12.101562 10.550781 12.28125 10.648438 12.398438 C 10.878906 12.648438 11.160156 12.660156 11.289062 12.421875 C 11.460938 12.101562 13.851562 9.78125 14.570312 9.230469 C 14.949219 8.941406 15.359375 8.609375 15.480469 8.5 C 15.589844 8.390625 15.710938 8.300781 15.738281 8.300781 C 15.769531 8.300781 16.171875 8.058594 16.621094 7.761719 C 19.738281 5.730469 23.328125 4.429688 27.199219 3.949219 C 29.128906 3.699219 32.109375 3.78125 34.050781 4.140625 C 37.371094 4.738281 40.28125 5.859375 43.089844 7.609375 C 43.601562 7.941406 44.058594 8.199219 44.101562 8.199219 C 44.148438 8.199219 44.199219 8.238281 44.21875 8.289062 C 44.238281 8.339844 44.679688 8.710938 45.199219 9.109375 C 46.171875 9.851562 48.898438 12.5 48.898438 12.691406 C 48.898438 12.910156 49.328125 12.789062 49.730469 12.449219 C 49.949219 12.261719 50.171875 12.101562 50.21875 12.101562 C 50.46875 12.101562 50.210938 11.640625 49.578125 10.949219 C 48.699219 10.011719 47.21875 8.558594 47.101562 8.519531 C 47.050781 8.5 46.859375 8.351562 46.679688 8.179688 C 46.191406 7.710938 44.78125 6.699219 44.628906 6.699219 C 44.558594 6.699219 44.5 6.660156 44.5 6.609375 C 44.5 6.5 42.929688 5.558594 41.738281 4.96875 C 39.339844 3.769531 36.589844 2.910156 33.648438 2.449219 C 32.449219 2.261719 28.738281 2.171875 27.449219 2.300781 Z M 27.449219 2.300781 "/>
<path style=" stroke:none;fill-rule:nonzero;fill:rgb(0%,0%,0%);fill-opacity:1;" d="M 16.238281 12.109375 C 16.058594 12.160156 15.710938 12.351562 15.441406 12.519531 C 13.828125 13.609375 13.558594 15.941406 14.871094 17.398438 C 15.429688 18.03125 15.878906 18.261719 16.769531 18.398438 C 18.351562 18.648438 19.769531 17.851562 20.308594 16.410156 C 20.589844 15.648438 20.550781 14.460938 20.199219 13.75 C 19.878906 13.089844 19.191406 12.449219 18.53125 12.199219 C 17.949219 11.988281 16.820312 11.941406 16.238281 12.109375 Z M 16.238281 12.109375 "/>
<path style=" stroke:none;fill-rule:nonzero;fill:rgb(0%,0%,0%);fill-opacity:1;" d="M 28.75 12.28125 C 28.03125 12.628906 27.511719 13.128906 27.191406 13.769531 C 26.859375 14.441406 26.851562 15.929688 27.160156 16.609375 C 27.46875 17.28125 27.941406 17.75 28.621094 18.101562 C 29.148438 18.359375 29.339844 18.398438 30.050781 18.398438 C 31.179688 18.398438 31.71875 18.199219 32.410156 17.511719 C 33.089844 16.828125 33.320312 16.21875 33.320312 15.140625 C 33.320312 13.878906 32.679688 12.851562 31.5 12.238281 C 31.261719 12.121094 30.859375 12.050781 30.25 12.03125 C 29.421875 11.988281 29.300781 12.011719 28.75 12.28125 Z M 28.75 12.28125 "/>
<path style=" stroke:none;fill-rule:nonzero;fill:rgb(0%,0%,0%);fill-opacity:1;" d="M 41.558594 12.160156 C 40.289062 12.621094 39.5 13.789062 39.5 15.199219 C 39.5 16.601562 40.289062 17.808594 41.5 18.25 C 42.308594 18.539062 43.390625 18.511719 44.121094 18.160156 C 45.53125 17.488281 46.25 15.941406 45.859375 14.421875 C 45.578125 13.308594 44.941406 12.578125 43.921875 12.199219 C 43.289062 11.960938 42.148438 11.941406 41.558594 12.160156 Z M 41.558594 12.160156 "/>
<path style=" stroke:none;fill-rule:nonzero;fill:rgb(0%,0%,0%);fill-opacity:1;" d="M 7.300781 12.789062 C 6.539062 13.039062 5.878906 13.589844 5.601562 14.21875 C 4.988281 15.621094 5.480469 17.21875 6.71875 17.871094 C 7.179688 18.109375 7.371094 18.148438 8.101562 18.148438 C 9.011719 18.148438 9.460938 17.988281 10.011719 17.46875 C 11.328125 16.210938 11.058594 13.910156 9.5 13.058594 C 9.078125 12.828125 8.808594 12.761719 8.261719 12.738281 C 7.871094 12.71875 7.441406 12.738281 7.300781 12.789062 Z M 7.300781 12.789062 "/>
<path style=" stroke:none;fill-rule:nonzero;fill:rgb(0%,0%,0%);fill-opacity:1;" d="M 51.101562 13.101562 C 50.910156 13.140625 50.738281 13.230469 50.71875 13.289062 C 50.699219 13.351562 50.648438 13.398438 50.601562 13.398438 C 50.511719 13.398438 49.800781 14.089844 49.800781 14.179688 C 49.800781 14.210938 49.71875 14.320312 49.628906 14.421875 C 49.378906 14.699219 49.308594 16.289062 49.539062 16.609375 C 49.628906 16.738281 49.699219 16.921875 49.699219 17.019531 C 49.699219 17.121094 49.730469 17.199219 49.78125 17.199219 C 49.820312 17.199219 49.898438 17.300781 49.949219 17.421875 C 50.011719 17.550781 50.171875 17.710938 50.328125 17.78125 C 50.480469 17.851562 50.601562 17.949219 50.601562 18.011719 C 50.601562 18.058594 50.679688 18.101562 50.78125 18.101562 C 50.871094 18.101562 51.078125 18.171875 51.238281 18.25 C 51.898438 18.601562 53.261719 18.300781 53.910156 17.671875 C 54.601562 17 54.75 16.628906 54.75 15.601562 C 54.75 14.898438 54.710938 14.691406 54.550781 14.460938 C 54.441406 14.300781 54.308594 14.101562 54.25 14.019531 C 54.078125 13.761719 53.800781 13.5 53.699219 13.5 C 53.648438 13.5 53.601562 13.449219 53.601562 13.398438 C 53.601562 13.339844 53.539062 13.300781 53.460938 13.300781 C 53.378906 13.300781 53.300781 13.25 53.28125 13.199219 C 53.238281 13.058594 51.550781 12.980469 51.101562 13.101562 Z M 51.101562 13.101562 "/>
<path style=" stroke:none;fill-rule:nonzero;fill:rgb(0%,0%,0%);fill-opacity:1;" d="M 5.460938 19.050781 C 4.878906 20.441406 4.230469 22.988281 3.941406 25.050781 C 3.730469 26.550781 3.699219 30 3.878906 31.5 C 4.078125 33.058594 4.648438 35.519531 5.160156 37.019531 C 6.039062 39.621094 7.800781 42.808594 9.570312 45 C 10.910156 46.671875 12.910156 48.539062 14.75 49.859375 C 16.179688 50.878906 18.488281 52.140625 20.101562 52.78125 C 22.089844 53.570312 25.488281 54.460938 25.691406 54.238281 C 25.738281 54.191406 25.808594 53.828125 25.839844 53.441406 L 25.910156 52.730469 L 25.03125 52.558594 C 21.441406 51.839844 17.46875 49.960938 14.5 47.570312 C 13.300781 46.601562 11.320312 44.550781 10.378906 43.289062 C 8.011719 40.128906 6.441406 36.589844 5.75 32.851562 C 5 28.738281 5.261719 24.890625 6.539062 20.949219 C 6.789062 20.191406 7 19.511719 7 19.449219 C 7 19.359375 5.839844 18.699219 5.671875 18.699219 C 5.628906 18.699219 5.539062 18.859375 5.460938 19.050781 Z M 5.460938 19.050781 "/>
<path style=" stroke:none;fill-rule:nonzero;fill:rgb(0%,0%,0%);fill-opacity:1;" d="M 13.398438 19.089844 C 12.679688 19.46875 12.691406 19.371094 12.691406 24.210938 C 12.691406 26.601562 12.691406 28.671875 12.699219 28.820312 C 12.699219 29.191406 13.398438 29.898438 13.75 29.898438 C 14.039062 29.898438 14.011719 29.320312 14 34.679688 C 14 36.949219 14.03125 38.449219 14.101562 38.699219 C 14.429688 39.910156 15.898438 40.261719 16.769531 39.328125 L 17.101562 38.988281 L 17.101562 34.390625 C 17.101562 30.378906 17.121094 29.800781 17.25 29.800781 C 17.378906 29.800781 17.398438 30.359375 17.398438 34.199219 C 17.398438 39.03125 17.398438 39.03125 17.988281 39.53125 C 18.261719 39.761719 18.410156 39.800781 18.898438 39.800781 C 19.230469 39.800781 19.609375 39.75 19.75 39.679688 L 20 39.570312 L 20 36.980469 C 20 34.730469 19.980469 34.398438 19.851562 34.398438 C 19.589844 34.398438 18.820312 33.550781 18.710938 33.140625 C 18.640625 32.890625 18.601562 31.21875 18.601562 28.539062 L 18.601562 24.320312 L 18.878906 23.789062 C 19.289062 23 19.808594 22.710938 20.828125 22.691406 C 21.339844 22.679688 21.601562 22.640625 21.601562 22.558594 C 21.601562 22.488281 21.359375 22.191406 21.058594 21.890625 C 20.441406 21.238281 20.109375 20.480469 20.03125 19.519531 L 19.96875 18.898438 L 16.859375 18.898438 C 14.011719 18.898438 13.71875 18.921875 13.398438 19.089844 Z M 13.398438 19.089844 "/>
<path style=" stroke:none;fill-rule:nonzero;fill:rgb(0%,0%,0%);fill-opacity:1;" d="M 27.339844 19.421875 C 27.351562 19.710938 27.308594 20.121094 27.261719 20.320312 C 27.148438 20.808594 27.328125 20.820312 27.96875 20.378906 C 28.5 20.019531 29.449219 19.699219 30 19.699219 C 30.488281 19.699219 31.601562 20.039062 31.929688 20.300781 C 32.070312 20.410156 32.300781 20.5 32.449219 20.5 C 32.71875 20.5 32.730469 20.488281 32.660156 20.039062 C 32.628906 19.78125 32.601562 19.421875 32.601562 19.238281 L 32.601562 18.898438 L 27.328125 18.898438 Z M 27.339844 19.421875 "/>
<path style=" stroke:none;fill-rule:nonzero;fill:rgb(0%,0%,0%);fill-opacity:1;" d="M 39.96875 19.519531 C 39.890625 20.46875 39.570312 21.210938 38.941406 21.871094 C 38.640625 22.191406 38.398438 22.488281 38.398438 22.550781 C 38.398438 22.609375 38.691406 22.660156 39.128906 22.660156 C 40.148438 22.660156 40.820312 23.070312 41.210938 23.941406 C 41.378906 24.320312 41.398438 24.671875 41.398438 28.550781 C 41.398438 31.230469 41.359375 32.890625 41.289062 33.140625 C 41.179688 33.550781 40.410156 34.398438 40.148438 34.398438 C 40.019531 34.398438 40 34.730469 40 36.980469 L 40 39.570312 L 40.25 39.679688 C 40.390625 39.75 40.769531 39.800781 41.101562 39.800781 C 41.589844 39.800781 41.738281 39.761719 42.011719 39.53125 C 42.601562 39.03125 42.601562 39.03125 42.601562 34.148438 C 42.601562 30.261719 42.621094 29.699219 42.75 29.699219 C 42.878906 29.699219 42.898438 30.28125 42.898438 34.289062 L 42.898438 38.871094 L 43.128906 39.210938 C 43.429688 39.648438 43.828125 39.839844 44.46875 39.828125 C 44.878906 39.828125 45.070312 39.769531 45.351562 39.550781 C 45.550781 39.398438 45.75 39.171875 45.808594 39.03125 C 45.859375 38.890625 45.898438 36.871094 45.898438 34.339844 C 45.898438 29.929688 45.898438 29.898438 46.101562 29.898438 C 46.429688 29.898438 46.859375 29.628906 47.121094 29.28125 L 47.351562 28.949219 L 47.351562 24.449219 C 47.351562 20.128906 47.339844 19.941406 47.148438 19.609375 C 46.738281 18.921875 46.621094 18.898438 43.140625 18.898438 L 40.03125 18.898438 Z M 39.96875 19.519531 "/>
<path style=" stroke:none;fill-rule:nonzero;fill:rgb(0%,0%,0%);fill-opacity:1;" d="M 54.160156 19.089844 C 54.128906 19.140625 53.871094 19.261719 53.589844 19.359375 C 53.308594 19.46875 53.058594 19.601562 53.03125 19.648438 C 53.011719 19.710938 53.109375 20.070312 53.25 20.449219 C 53.589844 21.359375 54.160156 23.609375 54.359375 24.851562 C 54.71875 27.121094 54.648438 30.441406 54.191406 32.898438 C 52.351562 42.699219 44.671875 50.539062 34.960938 52.539062 L 33.851562 52.769531 L 33.851562 53.550781 C 33.851562 53.96875 33.878906 54.339844 33.910156 54.359375 C 34.089844 54.460938 37.25 53.730469 38.398438 53.308594 C 38.699219 53.199219 39.128906 53.039062 39.359375 52.960938 C 42.730469 51.730469 46.191406 49.441406 48.859375 46.671875 C 55.421875 39.878906 57.808594 30.128906 55.148438 20.949219 C 54.660156 19.269531 54.378906 18.738281 54.160156 19.089844 Z M 54.160156 19.089844 "/>
<path style=" stroke:none;fill-rule:nonzero;fill:rgb(0%,0%,0%);fill-opacity:1;" d="M 28.949219 20.269531 C 27.421875 20.738281 26.460938 22.410156 26.789062 24.03125 C 27 25.070312 27.570312 25.839844 28.5 26.320312 C 28.851562 26.5 29.148438 26.558594 29.871094 26.578125 C 30.691406 26.621094 30.839844 26.589844 31.390625 26.351562 C 32.011719 26.070312 32.648438 25.480469 32.929688 24.941406 C 33.171875 24.46875 33.328125 23.511719 33.25 22.960938 C 32.980469 20.890625 30.988281 19.640625 28.949219 20.269531 Z M 28.949219 20.269531 "/>
<path style=" stroke:none;fill-rule:nonzero;fill:rgb(0%,0%,0%);fill-opacity:1;" d="M 26.140625 27.199219 C 26.03125 27.238281 25.808594 27.421875 25.671875 27.601562 L 25.398438 27.921875 L 25.398438 32.53125 C 25.398438 36.871094 25.410156 37.171875 25.589844 37.460938 C 25.761719 37.738281 26.320312 38.101562 26.589844 38.101562 C 26.660156 38.101562 26.699219 39.519531 26.71875 42.519531 C 26.75 46.871094 26.75 46.960938 26.96875 47.300781 C 27.269531 47.789062 27.679688 48 28.300781 48 C 28.910156 48 29.300781 47.820312 29.621094 47.378906 L 29.851562 47.050781 L 29.878906 42.570312 C 29.898438 39.929688 29.949219 38.101562 30 38.101562 C 30.050781 38.101562 30.101562 39.929688 30.121094 42.570312 L 30.148438 47.050781 L 30.378906 47.378906 C 30.699219 47.820312 31.089844 48 31.699219 48 C 32.320312 48 32.730469 47.789062 33.03125 47.300781 C 33.25 46.960938 33.25 46.871094 33.28125 42.519531 C 33.300781 39.519531 33.339844 38.101562 33.410156 38.101562 C 33.679688 38.101562 34.238281 37.738281 34.410156 37.460938 C 34.589844 37.171875 34.601562 36.878906 34.601562 32.589844 L 34.601562 28.03125 L 34.371094 27.691406 C 33.96875 27.101562 33.988281 27.101562 30 27.109375 C 27.988281 27.109375 26.261719 27.148438 26.140625 27.199219 Z M 26.140625 27.199219 "/>
<path style=" stroke:none;fill-rule:nonzero;fill:rgb(0%,0%,0%);fill-opacity:1;" d="M 29.011719 51.210938 C 27.859375 51.558594 27.101562 52.609375 27.101562 53.839844 C 27.101562 54.878906 27.550781 55.691406 28.429688 56.238281 C 28.96875 56.570312 29.980469 56.699219 30.671875 56.511719 C 31.28125 56.339844 31.910156 55.820312 32.25 55.199219 C 32.511719 54.71875 32.550781 54.550781 32.539062 53.851562 C 32.539062 52.710938 32.121094 51.960938 31.210938 51.46875 C 30.640625 51.148438 29.589844 51.03125 29.011719 51.210938 Z M 29.011719 51.210938 "/>
</g>
</svg>
