<?xml version="1.0" encoding="UTF-8"?>
<svg xmlns="http://www.w3.org/2000/svg" xmlns:xlink="http://www.w3.org/1999/xlink" width="60pt" height="60pt" viewBox="0 0 60 60" version="1.1">
<g id="surface1">
<path style=" stroke:none;fill-rule:nonzero;fill:rgb(0%,0%,0%);fill-opacity:1;" d="M 59.308594 27.144531 C 53.433594 15.929688 42.480469 8.4375 30 8.4375 C 27.035156 8.4375 24.15625 8.863281 21.410156 9.65625 L 15.914062 1.199219 C 15.121094 -0.0742188 13.5625 -0.382812 12.433594 0.507812 L 11.066406 1.585938 C 9.933594 2.476562 9.660156 4.230469 10.453125 5.5 L 14.945312 12.34375 C 9.316406 15.4375 4.191406 20.46875 0.695312 27.136719 C 0.695312 27.140625 0.695312 27.140625 0.691406 27.144531 C -0.21875 28.886719 -0.242188 31.074219 0.691406 32.855469 C 4.703125 40.511719 11.082031 46.433594 18.699219 49.421875 L 5.761719 28.628906 C 6.636719 27.136719 7.625 25.726562 8.710938 24.421875 L 21.148438 44.410156 L 25.378906 51.210938 C 28.105469 51.628906 30.867188 51.671875 33.601562 51.347656 L 13.8125 19.542969 C 15.097656 18.582031 16.449219 17.738281 17.851562 17.019531 L 44.085938 58.800781 C 44.878906 60.074219 46.4375 60.382812 47.566406 59.492188 L 48.933594 58.414062 C 50.066406 57.523438 50.339844 55.769531 49.546875 54.5 L 45.054688 47.65625 C 51.011719 44.378906 55.976562 39.214844 59.304688 32.855469 C 60.230469 31.09375 60.230469 28.90625 59.308594 27.144531 Z M 40.628906 40.539062 L 38.640625 37.347656 C 41.210938 33.53125 41.527344 28.402344 39.558594 24.261719 L 39.558594 24.265625 C 39.558594 27.035156 37.5625 29.28125 35.097656 29.28125 C 32.617188 29.28125 30.636719 27.015625 30.636719 24.265625 C 30.636719 21.492188 32.632812 19.246094 35.097656 19.246094 L 35.101562 19.246094 C 32.523438 17.695312 29.527344 17.414062 26.820312 18.347656 L 24.832031 15.15625 C 26.433594 14.449219 28.175781 14.0625 30 14.0625 C 37.828125 14.0625 44.167969 21.191406 44.167969 30 C 44.167969 34.042969 42.828125 37.730469 40.628906 40.539062 Z M 40.628906 40.539062 "/>
</g>
</svg>
